<?xml version="1.0" encoding="utf-8"?>
<!-- Generator: Adobe Illustrator 24.0.1, SVG Export Plug-In . SVG Version: 6.00 Build 0)  -->
<svg version="1.1" id="Layer_1" xmlns="http://www.w3.org/2000/svg" xmlns:xlink="http://www.w3.org/1999/xlink" x="0px" y="0px"
	 viewBox="0 0 500 500" style="enable-background:new 0 0 500 500;" xml:space="preserve">
<style type="text/css">
	.st0{fill:#312E38;}
	.st1{fill:#FFFFFF;}
	.st2{fill:#FF9000;}
</style>
<rect class="st0" width="500" height="500"/>
<g>
	<path class="st1" d="M248.4,233.5c-3.3,85.4-32.1,126.7-90.4,126.7c-44.6,0-69-28-69-80.6c0-42.8,11.3-80.9,28-105.6
		c15.2-22.3,38.4-34.2,68.4-34.2c37.5,0,61.3,18.1,67.5,50.3l-54.4,20.2c-3-12.8-7.1-18.1-16.4-18.1c-9.2,0-15.8,6.5-20.5,19.6
		c-6.5,18.4-12.5,52.6-12.5,74.3c0,16.1,3.9,22.3,14.9,22.3c13.1,0,21.7-11.3,23.2-33h-20.2l5.7-41.9H248.4z"/>
	<path class="st2" d="M281.7,144h54.7c49.7,0,74.6,12.2,74.6,48.8c0,27.7-14.9,45.2-45.2,51.7c22.3,6.2,34.8,22.6,34.8,44.9
		c0,19.9-8.6,38.4-23.8,50.6C360.8,353,341.2,356,314.4,356h-66.3L281.7,144z M320.6,312.3c13.7,0,21.4-9.2,21.4-27.1
		c0-13.1-6.5-19.9-19.9-19.9h-1.8l-6.8,46.4C316.5,312.3,318.8,312.3,320.6,312.3z M333.1,226.1c13.1,0,21.4-7.7,21.4-20.8
		c0-10.7-6.2-16.4-18.1-16.4c-1.2,0-2.7,0.3-3.9,0.3l-5.9,36.6C328.7,226.1,331,226.1,333.1,226.1z"/>
</g>
</svg>
